<mxfile host="app.diagrams.net" modified="2020-11-06T06:25:53.237Z" agent="5.0 (Windows NT 10.0; Win64; x64) AppleWebKit/537.36 (KHTML, like Gecko) Chrome/86.0.4240.183 Safari/537.36" etag="7mNdoryZNvytBJcZHPyR" version="13.9.2" type="github">
  <diagram id="0AOQ8Uhi0WA0280HYwqy" name="Page-1">
    <mxGraphModel dx="1038" dy="491" grid="1" gridSize="10" guides="1" tooltips="1" connect="1" arrows="1" fold="1" page="1" pageScale="1" pageWidth="850" pageHeight="1100" math="0" shadow="0">
      <root>
        <mxCell id="0" />
        <mxCell id="1" parent="0" />
        <mxCell id="xJp45SDj4HyNCS1gboav-1" value="Use Case 3: Buy Financial Instrument" style="text;html=1;strokeColor=none;fillColor=none;align=center;verticalAlign=middle;whiteSpace=wrap;rounded=0;fontSize=24;" parent="1" vertex="1">
          <mxGeometry x="170" y="30" width="460" height="20" as="geometry" />
        </mxCell>
        <mxCell id="CdubLPp7LxXFMNc4IUCy-5" value="" style="edgeStyle=orthogonalEdgeStyle;rounded=0;orthogonalLoop=1;jettySize=auto;html=1;fontSize=24;horizontal=1;" parent="1" source="CdubLPp7LxXFMNc4IUCy-1" target="CdubLPp7LxXFMNc4IUCy-2" edge="1">
          <mxGeometry relative="1" as="geometry" />
        </mxCell>
        <mxCell id="CdubLPp7LxXFMNc4IUCy-1" value="" style="ellipse;whiteSpace=wrap;html=1;aspect=fixed;fontSize=24;fillColor=#000000;" parent="1" vertex="1">
          <mxGeometry x="375" y="110" width="50" height="50" as="geometry" />
        </mxCell>
        <mxCell id="CdubLPp7LxXFMNc4IUCy-7" style="edgeStyle=orthogonalEdgeStyle;rounded=0;orthogonalLoop=1;jettySize=auto;html=1;entryX=0.5;entryY=0;entryDx=0;entryDy=0;fontSize=12;" parent="1" source="CdubLPp7LxXFMNc4IUCy-2" target="CdubLPp7LxXFMNc4IUCy-6" edge="1">
          <mxGeometry relative="1" as="geometry" />
        </mxCell>
        <mxCell id="CdubLPp7LxXFMNc4IUCy-2" value="Place Buy Order" style="rounded=1;whiteSpace=wrap;html=1;fillColor=#FFFFFF;fontSize=12;" parent="1" vertex="1">
          <mxGeometry x="290" y="210" width="220" height="30" as="geometry" />
        </mxCell>
        <mxCell id="CdubLPp7LxXFMNc4IUCy-9" value="" style="edgeStyle=orthogonalEdgeStyle;rounded=0;orthogonalLoop=1;jettySize=auto;html=1;fontSize=12;" parent="1" source="CdubLPp7LxXFMNc4IUCy-6" target="CdubLPp7LxXFMNc4IUCy-8" edge="1">
          <mxGeometry relative="1" as="geometry" />
        </mxCell>
        <mxCell id="CdubLPp7LxXFMNc4IUCy-6" value="Validate Order" style="rounded=1;whiteSpace=wrap;html=1;fillColor=#FFFFFF;fontSize=12;" parent="1" vertex="1">
          <mxGeometry x="290" y="300" width="220" height="30" as="geometry" />
        </mxCell>
        <mxCell id="CdubLPp7LxXFMNc4IUCy-14" style="edgeStyle=orthogonalEdgeStyle;rounded=0;orthogonalLoop=1;jettySize=auto;html=1;entryX=0.5;entryY=0;entryDx=0;entryDy=0;fontSize=12;" parent="1" source="CdubLPp7LxXFMNc4IUCy-8" target="CdubLPp7LxXFMNc4IUCy-10" edge="1">
          <mxGeometry relative="1" as="geometry" />
        </mxCell>
        <mxCell id="CdubLPp7LxXFMNc4IUCy-15" style="edgeStyle=orthogonalEdgeStyle;rounded=0;orthogonalLoop=1;jettySize=auto;html=1;exitX=1;exitY=0.5;exitDx=0;exitDy=0;entryX=0.5;entryY=0;entryDx=0;entryDy=0;fontSize=12;" parent="1" source="CdubLPp7LxXFMNc4IUCy-8" target="CdubLPp7LxXFMNc4IUCy-11" edge="1">
          <mxGeometry relative="1" as="geometry" />
        </mxCell>
        <mxCell id="CdubLPp7LxXFMNc4IUCy-8" value="Verify?" style="rhombus;whiteSpace=wrap;html=1;fillColor=#FFFFFF;fontSize=12;" parent="1" vertex="1">
          <mxGeometry x="360" y="400" width="80" height="80" as="geometry" />
        </mxCell>
        <mxCell id="CdubLPp7LxXFMNc4IUCy-18" style="edgeStyle=orthogonalEdgeStyle;rounded=0;orthogonalLoop=1;jettySize=auto;html=1;entryX=0;entryY=0.5;entryDx=0;entryDy=0;fontSize=12;exitX=0.5;exitY=1;exitDx=0;exitDy=0;" parent="1" source="CdubLPp7LxXFMNc4IUCy-10" target="CdubLPp7LxXFMNc4IUCy-13" edge="1">
          <mxGeometry relative="1" as="geometry" />
        </mxCell>
        <mxCell id="CdubLPp7LxXFMNc4IUCy-10" value="Error" style="rounded=1;whiteSpace=wrap;html=1;fillColor=#FFFFFF;fontSize=12;" parent="1" vertex="1">
          <mxGeometry x="200" y="520" width="90" height="30" as="geometry" />
        </mxCell>
        <mxCell id="CdubLPp7LxXFMNc4IUCy-17" value="" style="edgeStyle=orthogonalEdgeStyle;rounded=0;orthogonalLoop=1;jettySize=auto;html=1;fontSize=12;" parent="1" source="CdubLPp7LxXFMNc4IUCy-11" target="CdubLPp7LxXFMNc4IUCy-13" edge="1">
          <mxGeometry relative="1" as="geometry" />
        </mxCell>
        <mxCell id="CdubLPp7LxXFMNc4IUCy-11" value="Buy Financial Instrument" style="rounded=1;whiteSpace=wrap;html=1;fillColor=#FFFFFF;fontSize=12;" parent="1" vertex="1">
          <mxGeometry x="450" y="520" width="220" height="30" as="geometry" />
        </mxCell>
        <mxCell id="CdubLPp7LxXFMNc4IUCy-13" value="" style="ellipse;html=1;shape=endState;fillColor=#000000;strokeColor=#ff0000;fontSize=12;" parent="1" vertex="1">
          <mxGeometry x="545" y="610" width="30" height="30" as="geometry" />
        </mxCell>
      </root>
    </mxGraphModel>
  </diagram>
</mxfile>
